PathFileType	4	(X/Y/Z)	./resultDataOpenSim/trcMotMarkerGrf/sub06/qtm-12-06.trc
DataRate	CameraRate	NumFrames	NumMarkers	Units	OrigDataRate	OrigDataStartFrame	OrigNumFrames
250.000000	250.000000	15	24	m	250.000000	1	538
Frame#	Time	L.Toe.Tip			R.Toe.Tip			L.Ankle.Lat			R.Ankle.Lat			L.Ankle.Med			R.Ankle.Med			L.Heel			R.Heel			L.Knee.Lat			R.Knee.Lat			L.Knee.Med			R.Knee.Med			L.Thigh.Upper			R.Thigh.Upper			L.ASIS			R.ASIS			V.Sacral			L.Acromium			R.Acromium			C7			L.Elbow			R.Elbow			L.Wrist.Lat			R.Wrist.Lat
		X1	Y1	Z1	X2	Y2	Z2	X3	Y3	Z3	X4	Y4	Z4	X5	Y5	Z5	X6	Y6	Z6	X7	Y7	Z7	X8	Y8	Z8	X9	Y9	Z9	X10	Y10	Z10	X11	Y11	Z11	X12	Y12	Z12	X13	Y13	Z13	X14	Y14	Z14	X15	Y15	Z15	X16	Y16	Z16	X17	Y17	Z17	X18	Y18	Z18	X19	Y19	Z19	X20	Y20	Z20	X21	Y21	Z21	X22	Y22	Z22	X23	Y23	Z23	X24	Y24	Z24

1	0	-1.5486423	0.032383508	-0.09023866	-1.1376357	0.076655286	0.12457815	-1.6719491	0.071694118	-0.10290348	-1.2694552	0.0826113	0.11803618	-1.663324	0.081146263	-0.017523529	-1.2395647	0.11024055	0.038425165	NaN	NaN	NaN	-1.3066678	0.054194285	0.041009811	-1.5344597	0.41880803	-0.11181247	-1.268344	0.47378222	0.15259301	-1.5511327	0.42322217	0.0071114482	-1.2762729	0.46016617	0.025475258	-1.4673404	0.80272848	-0.17501774	-1.454993	0.80157713	0.17544438	-1.3894412	0.84589386	-0.13159242	-1.3735305	0.85722392	0.11063577	-1.5636863	0.92871586	0.0067489217	-1.4076826	1.3325843	-0.19264656	-1.4076902	1.3196464	0.16946113	-1.4890985	1.3627356	-0.011567651	-1.4346185	1.0147196	-0.26221215	-1.5210564	1.0238923	0.23579794	-1.2579414	0.84039987	-0.25249566	-1.3744928	0.82124395	0.25566797
2	0.004	-1.5487362	0.032375186	-0.090212198	-1.1203546	0.078528327	0.12528708	-1.6716448	0.071940993	-0.10308709	-1.252147	0.081959581	0.1190206	-1.6631315	0.081654285	-0.017597418	-1.223289	0.11006923	0.03933116	NaN	NaN	NaN	-1.2891145	0.052342504	0.042096038	-1.5329006	0.41837236	-0.11205529	-1.2622379	0.47276322	0.15204957	-1.5493454	0.42295674	0.0069254315	-1.2696841	0.45879214	0.024840035	-1.462656	0.8013603	-0.17508583	-1.449164	0.80023892	0.17556681	-1.3840522	0.84453454	-0.13155879	-1.3683669	0.85565896	0.11074307	-1.5577656	0.92717712	0.0067171897	-1.4020353	1.3312192	-0.1924795	-1.4028712	1.3180423	0.16977109	-1.4839713	1.3615569	-0.011266721	-1.4270301	1.0129674	-0.26362928	-1.5162838	1.0220392	0.23464353	-1.2479965	0.84094312	-0.25123689	-1.3735448	0.81872403	0.25700273
3	0.008	-1.5488272	0.032357822	-0.090186983	-1.1032302	0.080531104	0.12604329	-1.6713926	0.072202213	-0.10322709	-1.2348598	0.081429829	0.1200918	-1.6629696	0.082078257	-0.017665508	-1.2072525	0.11004053	0.040334214	NaN	NaN	NaN	-1.2716751	0.050643067	0.043254397	-1.5312712	0.41790496	-0.11230484	-1.2561473	0.47168806	0.15147868	-1.5473605	0.42264106	0.0067336841	-1.263061	0.45738268	0.024153137	-1.4580437	0.80004774	-0.17514787	-1.4432818	0.79889741	0.17567445	-1.3787635	0.84310647	-0.13155579	-1.3629263	0.85412182	0.11087393	-1.5513319	0.92548864	0.0065322905	-1.3963971	1.3298268	-0.19231921	-1.3979977	1.3163848	0.1700852	-1.4787059	1.360341	-0.01099385	-1.4193764	1.0112002	-0.26504304	-1.5115428	1.0202229	0.2335692	-1.2380692	0.84147677	-0.24999278	-1.3725766	0.81619449	0.25834791
4	0.012	-1.5489163	0.032327397	-0.090162592	-1.086348	0.082755841	0.12689983	-1.6713062	0.072473831	-0.10322699	-1.2176972	0.08107178	0.12127654	-1.6628514	0.082404903	-0.017719787	-1.1915218	0.11021567	0.041448497	NaN	NaN	NaN	-1.2544059	0.049220323	0.044460455	-1.529521	0.41738341	-0.11255555	-1.2500576	0.47051867	0.15087066	-1.5452458	0.42222854	0.0065648473	-1.2563804	0.45589313	0.02340178	-1.4535048	0.79876817	-0.17521137	-1.4373013	0.79751637	0.17578179	-1.3736004	0.84159264	-0.13160582	-1.3571496	0.85258907	0.11102182	-1.5444535	0.92366681	0.0063081847	-1.3907461	1.3283843	-0.19216049	-1.3930372	1.3146465	0.17040416	-1.4732894	1.3590634	-0.010816821	-1.4115463	1.0094206	-0.2662983	-1.5069334	1.0185115	0.23268314	-1.2281537	0.84199506	-0.24876542	-1.3715655	0.81365014	0.25969849
5	0.016	-1.5490068	0.032284903	-0.090138351	-1.0697728	0.0852387	0.12788449	-1.671405	0.072743735	-0.10305953	-1.2008699	0.080853052	0.12252581	-1.6627363	0.082671568	-0.017756434	-1.1760533	0.11057572	0.042617496	NaN	NaN	NaN	-1.2373663	0.048103461	0.04566206	-1.5276273	0.41680168	-0.11279888	-1.2439428	0.46925011	0.15023576	-1.5431297	0.42169796	0.0064438378	-1.249657	0.45430419	0.022609919	-1.4490098	0.79746455	-0.17527302	-1.4312072	0.79605671	0.17590192	-1.3685497	0.84001332	-0.13172514	-1.3511559	0.85101779	0.11116246	-1.5377002	0.92192821	0.006384084	-1.3850665	1.3268812	-0.19199741	-1.3879981	1.3128394	0.1707278	-1.4677908	1.3577327	-0.01073669	-1.4034918	1.0076458	-0.26717829	-1.5025547	1.0169456	0.23206078	-1.2182589	0.84249086	-0.24754471	-1.3704876	0.81109208	0.26104012
6	0.02	-1.549094	0.032235701	-0.090118969	-1.0535604	0.08798086	0.12896372	-1.6715268	0.073013406	-0.10284104	-1.1845366	0.080722439	0.123771	-1.6624932	0.082918286	-0.0177827	-1.1608035	0.11108586	0.043794309	NaN	NaN	NaN	-1.2206089	0.047236837	0.04685811	-1.5255816	0.41616376	-0.11303408	-1.2377816	0.46790085	0.14959675	-1.5409672	0.4210587	0.0063578869	-1.2429101	0.45263328	0.021800291	-1.4445505	0.79611797	-0.17531675	-1.4249977	0.79450582	0.17602413	-1.3635853	0.83838289	-0.13191891	-1.3450657	0.84938447	0.11127789	-1.5315178	0.9205439	0.0070299307	-1.3793625	1.3253204	-0.19183597	-1.3829003	1.3109891	0.17106318	-1.4622477	1.3563771	-0.010643148	-1.3953074	1.0058781	-0.26767471	-1.4983898	1.0154731	0.23168018	-1.2083998	0.84295735	-0.24631823	-1.3693267	0.80852141	0.26236158
7	0.024	-1.5491561	0.032188997	-0.090122292	-1.0377543	0.090979796	0.1300507	-1.6715149	0.073296033	-0.10269394	-1.1687056	0.080681043	0.12498189	-1.6619543	0.083174006	-0.017811731	-1.1457781	0.11173212	0.044960804	NaN	NaN	NaN	-1.2041739	0.046554172	0.048086516	-1.5233842	0.4154791	-0.11326624	-1.2315441	0.46650218	0.14898555	-1.5386317	0.4203277	0.0062802158	-1.2361414	0.45091376	0.020973458	-1.4401374	0.7947347	-0.17535019	-1.4186803	0.79287508	0.17613532	-1.3586637	0.83670959	-0.13217589	-1.3389287	0.84768646	0.11135543	-1.5259147	0.91961303	0.0082057682	-1.3736438	1.323717	-0.19168752	-1.3777449	1.309104	0.17141846	-1.456667	1.3550118	-0.010460881	-1.3871313	1.0041072	-0.26798199	-1.4943338	1.0139963	0.2314568	-1.1985906	0.84339046	-0.24508513	-1.3680803	0.80594315	0.26365666
8	0.028	-1.5491528	0.032155443	-0.090185351	-1.0223419	0.094262061	0.1310321	-1.6713625	0.073600028	-0.10263172	-1.1532933	0.080775247	0.1261602	-1.6610702	0.083458205	-0.017847608	-1.131009	0.11251093	0.04609936	NaN	NaN	NaN	-1.1880909	0.046009756	0.049391712	-1.521047	0.41476315	-0.11349536	-1.2251549	0.46509104	0.14844081	-1.5360558	0.4195206	0.006193825	-1.229344	0.44917802	0.020121851	-1.435773	0.79330545	-0.17538702	-1.4122842	0.79118443	0.17623366	-1.3537297	0.83501283	-0.13248029	-1.3327419	0.84592991	0.11138151	-1.5206137	0.91891565	0.0095274145	-1.3679123	1.322083	-0.19155209	-1.3725143	1.3071795	0.17179137	-1.451061	1.3536284	-0.010244121	-1.3790126	1.0023275	-0.26825364	-1.4902933	1.012455	0.2313174	-1.1888413	0.84378899	-0.24385211	-1.3667541	0.80336843	0.26492411
9	0.032	-1.5490317	0.032145488	-0.090360109	-1.007221	0.097886218	0.13176898	-1.6711371	0.073927367	-0.10260474	-1.1382289	0.081042478	0.12731238	-1.6599802	0.083782997	-0.017877547	-1.1165617	0.1134027	0.04719036	NaN	NaN	NaN	-1.1723727	0.045574425	0.050791424	-1.5185919	0.41403293	-0.11371228	-1.2184843	0.46370934	0.14800724	-1.5332152	0.41866119	0.0060843375	-1.2225155	0.44745386	0.019249049	-1.4314569	0.79182564	-0.17535236	-1.4058704	0.78944809	0.17631293	-1.3487385	0.83332	-0.13282171	-1.326487	0.8441244	0.111351	-1.5152853	0.91805434	0.010529246	-1.3621684	1.3204184	-0.19141198	-1.3671987	1.3052206	0.17217263	-1.4454388	1.3522146	-0.010067687	-1.3709215	1.0005352	-0.26850067	-1.4862286	1.0108476	0.23122216	-1.1791582	0.84415531	-0.24262	-1.3653573	0.80081196	0.26616596
10	0.036	-1.548768	0.03216394	-0.090673173	-0.99228651	0.1018665	0.13216316	-1.6708806	0.074282537	-0.10257073	-1.1234884	0.08149012	0.12844456	-1.6589216	0.084156252	-0.017877342	-1.1025327	0.11436189	0.048216476	NaN	NaN	NaN	-1.1570064	0.04522787	0.052258345	-1.5160387	0.41330013	-0.11391252	-1.2114416	0.46239483	0.14770798	-1.5300692	0.41776977	0.0059379042	-1.2156608	0.44576275	0.018370921	-1.4271817	0.79033907	-0.17507926	-1.399522	0.78766405	0.17634564	-1.343662	0.83165818	-0.13317917	-1.3201588	0.84228079	0.11127083	-1.5097389	0.9168189	0.011079087	-1.3564151	1.318722	-0.19124748	-1.361805	1.3032426	0.17255782	-1.439789	1.3507745	-0.00990785	-1.3628142	0.99872312	-0.26865774	-1.482136	1.0092038	0.23114349	-1.1695455	0.84449141	-0.24138364	-1.3638968	0.79828651	0.26738468
11	0.04	-1.5484367	0.032199117	-0.091054476	-0.97762868	0.10606146	0.13229363	-1.6705968	0.07467138	-0.10251315	-1.1090967	0.082101372	0.12955257	-1.6581272	0.084574067	-0.017823651	-1.0889914	0.11533892	0.049155919	NaN	NaN	NaN	-1.1419795	0.044953264	0.053736988	-1.5134018	0.41257326	-0.11410335	-1.2041553	0.46114997	0.14749283	-1.5265912	0.41686049	0.0057533813	-1.2087892	0.44411904	0.017506906	-1.4229071	0.78891932	-0.17449501	-1.3933171	0.78581592	0.17628677	-1.3384867	0.8300525	-0.13350129	-1.3137689	0.84040545	0.11114565	-1.5039765	0.91530475	0.011412265	-1.3506533	1.3170065	-0.19105623	-1.3563465	1.3012577	0.172952	-1.4340938	1.3493257	-0.0096870965	-1.3546687	0.99689028	-0.26868663	-1.4780097	1.0075566	0.23104976	-1.1600057	0.84479756	-0.24013937	-1.3623731	0.79580165	0.26858154
12	0.044	-1.548213	0.032225183	-0.091338967	-0.96355006	0.11020104	0.1323905	-1.6702801	0.075095962	-0.10243548	-1.0951149	0.082838364	0.13060874	-1.657738	0.085010836	-0.01771092	-1.0759433	0.11630242	0.049986558	NaN	NaN	NaN	-1.1273337	0.044732622	0.055165949	-1.5106944	0.41186389	-0.11429378	-1.1969448	0.45993939	0.14725471	-1.5228678	0.41595577	0.0055472308	-1.2019159	0.44252961	0.016675858	-1.418577	0.7875896	-0.17376118	-1.3873096	0.783895	0.17610255	-1.3332343	0.82851367	-0.13374877	-1.3073327	0.83850008	0.11096926	-1.498084	0.91369719	0.011799312	-1.3448821	1.3152938	-0.19085022	-1.3508383	1.2992744	0.1733629	-1.4283557	1.3478759	-0.009391004	-1.3464972	0.99505439	-0.26862422	-1.4737955	1.0059249	0.23092857	-1.1505363	0.84508045	-0.23888514	-1.3607847	0.79336473	0.26975799
13	0.048	-1.5482184	0.032224218	-0.091414222	-0.95028772	0.11406999	0.1326087	-1.6699365	0.07556131	-0.10235288	-1.0816101	0.083647049	0.13156929	-1.6577175	0.085435796	-0.017558107	-1.0633618	0.11723435	0.050697162	NaN	NaN	NaN	-1.1131748	0.044544885	0.056487916	-1.5079243	0.41118405	-0.11448764	-1.1899928	0.45874361	0.14692783	-1.5190918	0.41507467	0.0053406558	-1.1950642	0.44099415	0.015903872	-1.4141788	0.78629819	-0.17314331	-1.3814996	0.7819159	0.17580542	-1.3279886	0.8270197	-0.13398457	-1.300866	0.83657333	0.11073488	-1.4921236	0.91209928	0.012356521	-1.3391012	1.3136002	-0.19063947	-1.3452893	1.2973018	0.17379444	-1.4225966	1.3464147	-0.0090884492	-1.3383304	0.99324579	-0.2685372	-1.4693581	1.0043089	0.23086324	-1.1411288	0.84535559	-0.23761544	-1.3591398	0.79097963	0.27091788
14	0.052	-1.5483848	0.032199172	-0.091341353	-0.93783039	0.11761659	0.13290553	-1.6695779	0.07608385	-0.102283	-1.0686305	0.084469521	0.13240004	-1.6578829	0.085850499	-0.01739429	-1.0512301	0.11811887	0.051285635	NaN	NaN	NaN	-1.0996	0.044374284	0.057660888	-1.5050908	0.41054113	-0.11468637	-1.1831969	0.4575882	0.14653367	-1.5154101	0.41422306	0.0051410252	-1.188254	0.43950967	0.015221585	-1.4097475	0.78498609	-0.17278745	-1.3757578	0.77990628	0.17546619	-1.3228661	0.82552077	-0.13435841	-1.2943731	0.83464187	0.11044648	-1.4861124	0.91053515	0.013093325	-1.3333094	1.3119301	-0.19042046	-1.3396986	1.2953491	0.17424871	-1.4168311	1.344933	-0.0088362322	-1.3301896	0.99148527	-0.26844887	-1.4645376	1.002709	0.23111475	-1.1317745	0.84563598	-0.23632071	-1.3574531	0.7886483	0.27206525
15	0.056	-1.5485502	0.032162615	-0.091262472	-0.92603838	0.12087956	0.13314433	-1.669207	0.076680034	-0.10223877	-1.0561942	0.085253969	0.13309492	-1.658032	0.086301404	-0.017243621	-1.0395507	0.11894013	0.05175331	NaN	NaN	NaN	-1.0866442	0.044216132	0.05866397	-1.5021843	0.40993891	-0.11488923	-1.1763911	0.45650051	0.14612751	-1.5118508	0.41341162	0.0049477651	-1.1814825	0.43807586	0.01464052	-1.4053094	0.78364415	-0.17265696	-1.3697537	0.77791173	0.17520548	-1.3179111	0.82397905	-0.13494694	-1.2878369	0.83271502	0.11011417	-1.480048	0.90899702	0.013988738	-1.3275042	1.3102819	-0.19017422	-1.3340707	1.2934295	0.17472899	-1.4110444	1.3434416	-0.0085927911	-1.3220754	0.98977383	-0.26832949	-1.4593743	1.0011605	0.23199995	-1.1224796	0.8459212	-0.23499943	-1.3557273	0.78637628	0.27319946
